# xmcd CD database file
#
# Track frame offsets:
#	150
#	15430
#	47672
#	79167
#	117482
#	146717
#	174362
#	198732
#	219520
#
# Disc length: 3321 seconds
#
# Revision: 0
# Processed by: cddbd v1.4PL0 Copyright (c) Steve Scherf et al.
# Submitted via: CDex 1.50Beta7
#
DISCID=7c0cf709
DTITLE=Javon Jackson - Pleasant Valley
DYEAR=1999
DGENRE=Jazz
TTITLE0=Sun Swept Sunday
TTITLE1=Pleasant Valley
TTITLE2=Hippodelphia
TTITLE3=Don't You Worry 'Bout a Thing
TTITLE4=Jim Jam
TTITLE5=In the Pocket
TTITLE6=Brother 'G'
TTITLE7=Love and Happiness
TTITLE8=For One Who Knows
EXTD=YEAR: 1999
EXTT0=
EXTT1=
EXTT2=
EXTT3=
EXTT4=
EXTT5=
EXTT6=
EXTT7=
EXTT8=
PLAYORDER=
